<svg width="24" height="24" viewBox="0 0 24 24" fill="none" xmlns="http://www.w3.org/2000/svg">
<path opacity="0.3" d="M9 22H15C20 22 22 20 22 15V9C22 4 20 2 15 2H9C4 2 2 4 2 9V15C2 20 4 22 9 22Z" fill="#A78656"/>
<path fill-rule="evenodd" clip-rule="evenodd" d="M3.09467 3.09467C4.42914 1.7602 6.42603 1.25 9 1.25H15C17.574 1.25 19.5709 1.7602 20.9053 3.09467C22.2398 4.42914 22.75 6.42603 22.75 9V15C22.75 17.574 22.2398 19.5709 20.9053 20.9053C19.5709 22.2398 17.574 22.75 15 22.75H9C6.42603 22.75 4.42914 22.2398 3.09467 20.9053C1.7602 19.5709 1.25 17.574 1.25 15V9C1.25 6.42603 1.7602 4.42914 3.09467 3.09467ZM4.15533 4.15533C3.2398 5.07086 2.75 6.57397 2.75 9V15C2.75 17.426 3.2398 18.9291 4.15533 19.8447C5.07086 20.7602 6.57397 21.25 9 21.25H15C17.426 21.25 18.9291 20.7602 19.8447 19.8447C20.7602 18.9291 21.25 17.426 21.25 15V9C21.25 6.57397 20.7602 5.07086 19.8447 4.15533C18.9291 3.2398 17.426 2.75 15 2.75H9C6.57397 2.75 5.07086 3.2398 4.15533 4.15533Z" fill="#A78656"/>
<path fill-rule="evenodd" clip-rule="evenodd" d="M11.6201 8.88C11.6201 8.46579 11.9559 8.13 12.3701 8.13H17.6201C18.0343 8.13 18.3701 8.46579 18.3701 8.88C18.3701 9.29422 18.0343 9.63 17.6201 9.63H12.3701C11.9559 9.63 11.6201 9.29422 11.6201 8.88Z" fill="#553716"/>
<path fill-rule="evenodd" clip-rule="evenodd" d="M9.91021 6.84967C10.2031 7.14257 10.2031 7.61744 9.91021 7.91033L7.66021 10.1603C7.36732 10.4532 6.89245 10.4532 6.59955 10.1603L5.84955 9.41034C5.55666 9.11744 5.55666 8.64257 5.84955 8.34967C6.14245 8.05678 6.61732 8.05678 6.91021 8.34967L7.12988 8.56934L8.84955 6.84967C9.14245 6.55678 9.61732 6.55678 9.91021 6.84967Z" fill="#553716"/>
<path fill-rule="evenodd" clip-rule="evenodd" d="M11.6201 15.88C11.6201 15.4658 11.9559 15.13 12.3701 15.13H17.6201C18.0343 15.13 18.3701 15.4658 18.3701 15.88C18.3701 16.2942 18.0343 16.63 17.6201 16.63H12.3701C11.9559 16.63 11.6201 16.2942 11.6201 15.88Z" fill="#553716"/>
<path fill-rule="evenodd" clip-rule="evenodd" d="M9.91021 13.8497C10.2031 14.1426 10.2031 14.6174 9.91021 14.9103L7.66021 17.1603C7.36732 17.4532 6.89245 17.4532 6.59955 17.1603L5.84955 16.4103C5.55666 16.1174 5.55666 15.6426 5.84955 15.3497C6.14245 15.0568 6.61732 15.0568 6.91021 15.3497L7.12988 15.5693L8.84955 13.8497C9.14245 13.5568 9.61732 13.5568 9.91021 13.8497Z" fill="#553716"/>
</svg>
