<svg width="24" height="24" viewBox="0 0 24 24" fill="none" xmlns="http://www.w3.org/2000/svg">
<path opacity="0.3" d="M21.5 18.0135C21.5 18.3555 21.4239 18.707 21.2621 19.049C21.1004 19.391 20.8911 19.714 20.6152 20.018C20.149 20.531 19.6352 20.9015 19.0548 21.139C18.484 21.3765 17.8655 21.5 17.1996 21.5C16.2291 21.5 15.192 21.272 14.0979 20.8065C13.0038 20.341 11.9096 19.714 10.825 18.9255C9.73085 18.1275 8.69379 17.244 7.70431 16.2655C6.72434 15.2775 5.83951 14.242 5.04982 13.159C4.26965 12.076 3.64171 10.993 3.18503 9.9195C2.72834 8.8365 2.5 7.801 2.5 6.813C2.5 6.167 2.61417 5.5495 2.84251 4.9795C3.07086 4.4 3.4324 3.868 3.93666 3.393C4.54557 2.7945 5.21157 2.5 5.91562 2.5C6.18202 2.5 6.44842 2.557 6.68628 2.671C6.93365 2.785 7.15248 2.956 7.32374 3.203L9.53105 6.3095C9.7023 6.547 9.82599 6.7655 9.91162 6.9745C9.99725 7.174 10.0448 7.3735 10.0448 7.554C10.0448 7.782 9.97822 8.01 9.84502 8.2285C9.72133 8.447 9.54056 8.675 9.31222 8.903L8.58913 9.6535C8.48448 9.758 8.43691 9.8815 8.43691 10.0335C8.43691 10.1095 8.44642 10.176 8.46545 10.252C8.49399 10.328 8.52253 10.385 8.54156 10.442C8.71282 10.7555 9.00776 11.164 9.42639 11.658C9.85453 12.152 10.3112 12.6555 10.806 13.159C11.3197 13.6625 11.8145 14.128 12.3187 14.5555C12.8135 14.9735 13.2226 15.2585 13.5461 15.4295C13.5936 15.4485 13.6507 15.477 13.7173 15.5055C13.7934 15.534 13.8696 15.5435 13.9552 15.5435C14.1169 15.5435 14.2406 15.4865 14.3453 15.382L15.0684 14.6695C15.3062 14.432 15.5346 14.2515 15.7534 14.1375C15.9722 14.0045 16.191 13.938 16.4289 13.938C16.6097 13.938 16.8 13.976 17.0093 14.0615C17.2186 14.147 17.4374 14.2705 17.6753 14.432L20.8245 16.6645C21.0719 16.8355 21.2431 17.035 21.3478 17.2725C21.4429 17.51 21.5 17.7475 21.5 18.0135Z" fill="#A78656"/>
<path fill-rule="evenodd" clip-rule="evenodd" d="M6.04285 3.39536C5.56951 3.39536 5.0861 3.58692 4.59537 4.0693L4.59008 4.0745L4.58468 4.07959C4.16106 4.47867 3.86777 4.91493 3.68413 5.38102L3.68341 5.38286L3.68267 5.3847C3.4943 5.85497 3.39729 6.37106 3.39729 6.92093C3.39729 7.77923 3.59539 8.70072 4.01282 9.69103C4.43603 10.6857 5.02269 11.7005 5.76118 12.7259C6.51189 13.7554 7.35397 14.7412 8.28812 15.6834C9.23183 16.6165 10.2198 17.458 11.2612 18.2177C12.2849 18.9619 13.3103 19.5484 14.3279 19.9814C15.329 20.4074 16.2511 20.6046 17.0908 20.6046C17.6542 20.6046 18.168 20.5006 18.6386 20.3048L18.6405 20.304L18.6424 20.3033C19.1034 20.1146 19.5227 19.817 19.9175 19.3824C19.9176 19.3824 19.9176 19.3824 19.9176 19.3823C20.1388 19.1385 20.3061 18.8806 20.4367 18.6044C20.5517 18.3612 20.6027 18.1186 20.6027 17.8884C20.6027 17.7385 20.5728 17.5978 20.5085 17.4342C20.4648 17.3395 20.3897 17.2429 20.2423 17.1411L20.2389 17.1387L17.1581 14.9545C16.9537 14.8161 16.7849 14.7235 16.64 14.6643C16.5075 14.6102 16.4109 14.5954 16.3363 14.5954C16.2467 14.5954 16.1566 14.617 16.0382 14.689L16.0185 14.7009L15.9981 14.7116C15.8695 14.7786 15.7028 14.9029 15.4982 15.1073L15.4966 15.1089L14.7902 15.805C14.7896 15.8056 14.7889 15.8063 14.7883 15.8069C14.5622 16.0317 14.2669 16.1674 13.9143 16.1674C13.7763 16.1674 13.6127 16.152 13.4361 16.0858L13.421 16.0802L13.4062 16.0738C13.3678 16.0574 13.3321 16.041 13.3068 16.0294L13.2995 16.0261C13.2693 16.0123 13.259 16.0078 13.2543 16.0059L13.2197 15.9921L13.1869 15.9747C12.8092 15.7751 12.3659 15.4617 11.8608 15.0349L11.8603 15.0345L11.8599 15.0342C11.348 14.6002 10.8502 14.1313 10.3416 13.6328L10.3368 13.6282L10.3322 13.6235C9.83534 13.1178 9.37821 12.6136 8.95191 12.1217L8.94938 12.1187L8.94687 12.1158C8.52463 11.6175 8.20123 11.1759 8.00054 10.8085L7.97076 10.754L7.95118 10.6953C7.95121 10.6954 7.94889 10.689 7.93668 10.6602C7.93566 10.6578 7.93456 10.6552 7.9334 10.6525C7.92179 10.6251 7.90345 10.582 7.88519 10.5333L7.87122 10.4961L7.86157 10.4576C7.83147 10.3374 7.81276 10.2149 7.81276 10.0744C7.81276 9.75886 7.92045 9.45766 8.16078 9.21467L8.86963 8.47888L8.87441 8.47411C9.06632 8.28246 9.19979 8.10869 9.28187 7.96368L9.28742 7.95386L9.2933 7.94422C9.3639 7.8284 9.38706 7.72933 9.38706 7.64651C9.38706 7.58675 9.36973 7.48579 9.31313 7.3539L9.31085 7.34859L9.30866 7.34324C9.24961 7.19911 9.15806 7.03302 9.0157 6.83557L9.01428 6.8336L6.84939 3.78648L6.8471 3.78318C6.75623 3.65211 6.64303 3.56238 6.50462 3.49858L6.49983 3.49638L6.49507 3.49409C6.3625 3.43055 6.20585 3.39536 6.04285 3.39536ZM3.62048 3.06966C4.32094 2.38324 5.13981 2 6.04285 2C6.3998 2 6.76303 2.07571 7.09494 2.23386C7.43787 2.39283 7.75042 2.63621 7.99343 2.98531L10.1511 6.0223C10.3421 6.28747 10.4916 6.54693 10.5997 6.80963C10.7096 7.06706 10.7843 7.35482 10.7843 7.64651C10.7843 8.00638 10.6793 8.35035 10.4928 8.65988C10.3342 8.93752 10.1176 9.20528 9.86737 9.45584L9.22578 10.1218C9.23227 10.1371 9.241 10.1578 9.25042 10.1818C9.38984 10.4259 9.6367 10.7695 10.0111 11.2115C10.421 11.6845 10.8559 12.1638 11.325 12.6416C11.8204 13.127 12.2897 13.5681 12.7635 13.9699C13.2117 14.3485 13.5609 14.5898 13.8146 14.7276C13.8351 14.7364 13.854 14.745 13.8694 14.752L14.5102 14.1206C14.5107 14.1201 14.5112 14.1195 14.5118 14.119C14.7665 13.8648 15.0397 13.6408 15.3313 13.4852C15.636 13.3041 15.9681 13.2 16.3363 13.2C16.6157 13.2 16.8917 13.2596 17.169 13.3729C17.4326 13.4806 17.6906 13.6287 17.9494 13.8045L17.9553 13.8084L21.0413 15.9964C21.3717 16.2256 21.6305 16.5158 21.7918 16.8818L21.7966 16.8927L21.801 16.9037C21.9197 17.2 22 17.521 22 17.8884C22 18.3279 21.9019 18.7737 21.7002 19.2002C21.5141 19.5937 21.2717 19.9682 20.9527 20.3197L20.9526 20.3198L20.9524 20.32C20.4349 20.8895 19.8488 21.3172 19.1742 21.5936C18.5274 21.8624 17.8309 22 17.0908 22C16.0302 22 14.9216 21.7508 13.7802 21.2651C12.6554 20.7865 11.5384 20.1452 10.4383 19.3454L10.4379 19.3451L10.4375 19.3448C9.33742 18.5424 8.29553 17.6546 7.30251 16.6725L7.30011 16.6701L7.29773 16.6677C6.3144 15.6762 5.42503 14.6355 4.63035 13.5455L4.62917 13.5439L4.62799 13.5423C3.83955 12.4477 3.19712 11.3424 2.72631 10.2356L2.72588 10.2345L2.72545 10.2335C2.2489 9.1033 2 7.99722 2 6.92093C2 6.20637 2.12632 5.51379 2.38459 4.86831C2.64729 4.20236 3.05992 3.59911 3.62048 3.06966Z" fill="#A78656"/>
<path fill-rule="evenodd" clip-rule="evenodd" d="M14.25 5.5C14.25 5.08579 14.5858 4.75 15 4.75C16.1417 4.75 17.1765 5.46194 17.8791 6.21911C18.2734 6.64175 18.6064 7.11523 18.8445 7.57833C19.075 8.02657 19.25 8.53018 19.25 9C19.25 9.41421 18.9142 9.75 18.5 9.75C18.0858 9.75 17.75 9.41421 17.75 9C17.75 8.86982 17.69 8.61343 17.5105 8.26417C17.3387 7.93008 17.087 7.56889 16.7817 7.24174L16.7801 7.24004L16.7801 7.24003C16.2027 6.61753 15.5379 6.25 15 6.25C14.5858 6.25 14.25 5.91421 14.25 5.5Z" fill="#553716"/>
<path fill-rule="evenodd" clip-rule="evenodd" d="M14.25 2C14.25 1.58579 14.5858 1.25 15 1.25C19.2842 1.25 22.75 4.71579 22.75 9C22.75 9.41421 22.4142 9.75 22 9.75C21.5858 9.75 21.25 9.41421 21.25 9C21.25 5.54421 18.4558 2.75 15 2.75C14.5858 2.75 14.25 2.41421 14.25 2Z" fill="#553716"/>
</svg>
