<svg width="24" height="24" viewBox="0 0 24 24" fill="none" xmlns="http://www.w3.org/2000/svg">
<path opacity="0.3" d="M9 22H15C20 22 22 20 22 15V9C22 4 20 2 15 2H9C4 2 2 4 2 9V15C2 20 4 22 9 22Z" fill="#A78656" stroke="#A78656" stroke-width="1.5" stroke-linecap="round" stroke-linejoin="round"/>
<path fill-rule="evenodd" clip-rule="evenodd" d="M22.5304 6.53039L6.53039 22.5304L5.46973 21.4697L21.4697 5.46973L22.5304 6.53039Z" fill="#553716"/>
<path fill-rule="evenodd" clip-rule="evenodd" d="M19.9697 21.0304L13.4697 14.5304L14.5304 13.4697L21.0304 19.9697L19.9697 21.0304Z" fill="#553716"/>
<path fill-rule="evenodd" clip-rule="evenodd" d="M3.09467 3.09467C4.42914 1.7602 6.42603 1.25 9 1.25H15C17.574 1.25 19.5709 1.7602 20.9053 3.09467C22.2398 4.42914 22.75 6.42603 22.75 9V15C22.75 17.574 22.2398 19.5709 20.9053 20.9053C19.5709 22.2398 17.574 22.75 15 22.75H9C6.42603 22.75 4.42914 22.2398 3.09467 20.9053C1.7602 19.5709 1.25 17.574 1.25 15V9C1.25 6.42603 1.7602 4.42914 3.09467 3.09467ZM4.15533 4.15533C3.2398 5.07086 2.75 6.57397 2.75 9V15C2.75 17.426 3.2398 18.9291 4.15533 19.8447C5.07086 20.7602 6.57397 21.25 9 21.25H15C17.426 21.25 18.9291 20.7602 19.8447 19.8447C20.7602 18.9291 21.25 17.426 21.25 15V9C21.25 6.57397 20.7602 5.07086 19.8447 4.15533C18.9291 3.2398 17.426 2.75 15 2.75H9C6.57397 2.75 5.07086 3.2398 4.15533 4.15533Z" fill="#A78656"/>
<path fill-rule="evenodd" clip-rule="evenodd" d="M9.11987 6.53247C8.12391 6.53247 7.21582 7.09228 6.97045 8.14953L6.97037 8.14986C6.66762 9.45169 7.48036 10.6481 8.39501 11.5149C8.8082 11.9038 9.44368 11.8985 9.84145 11.518L9.84405 11.5155L9.84405 11.5155C10.755 10.6525 11.564 9.45377 11.2689 8.14771C11.0229 7.09164 10.1153 6.53247 9.11987 6.53247ZM9.11987 5.03247C10.6639 5.03247 12.2958 5.93766 12.7305 7.81042L12.7313 7.81412L12.7313 7.81412C13.2148 9.94649 11.8653 11.6665 10.8768 12.6033C9.89474 13.5413 8.35171 13.5356 7.36537 12.6057L7.36407 12.6044C6.37905 11.6713 5.01233 9.94811 5.50929 7.81042M9.11987 5.03247C7.57592 5.03247 5.94411 5.93756 5.50936 7.81009L9.11987 5.03247Z" fill="#553716"/>
<path fill-rule="evenodd" clip-rule="evenodd" d="M8.09473 8.69995C8.09473 8.14767 8.54244 7.69995 9.09473 7.69995H9.10371C9.65599 7.69995 10.1037 8.14767 10.1037 8.69995C10.1037 9.25224 9.65599 9.69995 9.10371 9.69995H9.09473C8.54244 9.69995 8.09473 9.25224 8.09473 8.69995Z" fill="#A78656"/>
</svg>
