<svg width="24" height="24" viewBox="0 0 24 24" fill="none" xmlns="http://www.w3.org/2000/svg">
<path opacity="0.3" d="M9 22H15C20 22 22 20 22 15V9C22 4 20 2 15 2H9C4 2 2 4 2 9V15C2 20 4 22 9 22Z" fill="#A78656"/>
<path fill-rule="evenodd" clip-rule="evenodd" d="M3.09467 3.09467C4.42914 1.7602 6.42603 1.25 9 1.25H15C17.574 1.25 19.5709 1.7602 20.9053 3.09467C22.2398 4.42914 22.75 6.42603 22.75 9V15C22.75 17.574 22.2398 19.5709 20.9053 20.9053C19.5709 22.2398 17.574 22.75 15 22.75H9C6.42603 22.75 4.42914 22.2398 3.09467 20.9053C1.7602 19.5709 1.25 17.574 1.25 15V9C1.25 6.42603 1.7602 4.42914 3.09467 3.09467ZM4.15533 4.15533C3.2398 5.07086 2.75 6.57397 2.75 9V15C2.75 17.426 3.2398 18.9291 4.15533 19.8447C5.07086 20.7602 6.57397 21.25 9 21.25H15C17.426 21.25 18.9291 20.7602 19.8447 19.8447C20.7602 18.9291 21.25 17.426 21.25 15V9C21.25 6.57397 20.7602 5.07086 19.8447 4.15533C18.9291 3.2398 17.426 2.75 15 2.75H9C6.57397 2.75 5.07086 3.2398 4.15533 4.15533Z" fill="#A78656"/>
<path fill-rule="evenodd" clip-rule="evenodd" d="M11.3917 5.14357C11.778 4.95179 12.2243 4.95214 12.6104 5.14462L12.6184 5.14859C13.0197 5.35532 13.3495 5.70084 13.5773 6.06854C13.805 6.436 13.9693 6.8878 13.9693 7.3458V9.05189L17.3649 10.5126C17.7162 10.6613 17.9927 10.932 18.1784 11.2153C18.3646 11.4993 18.5 11.8574 18.5 12.2297V13.0616C18.5 13.5009 18.3246 13.9414 17.927 14.2002C17.5304 14.4584 17.0566 14.4423 16.6538 14.2677C16.6532 14.2674 16.6525 14.2671 16.6519 14.2668L13.9603 13.1133V14.4071C13.9603 14.4071 13.9603 14.4071 13.9603 14.4071C13.9607 14.4083 13.9612 14.4097 13.9616 14.411C13.9625 14.4137 13.9636 14.4166 13.9649 14.4196C13.9664 14.4234 13.9679 14.4268 13.9694 14.4297L15.423 15.8879C15.4234 15.8883 15.4238 15.8887 15.4242 15.8891C15.6113 16.0762 15.7149 16.3143 15.7631 16.5218C15.8111 16.7285 15.8234 16.9881 15.737 17.2396L15.451 18.095C15.1979 18.8519 14.3244 19.2262 13.5994 18.8555C13.5533 18.832 13.5101 18.8031 13.4706 18.7697L11.9952 17.5189C11.9931 17.5186 11.9906 17.5184 11.9877 17.5184C11.9875 17.5184 11.9878 17.5184 11.9877 17.5184L10.501 18.7709C10.4601 18.8054 10.4153 18.8348 10.3675 18.8586C9.63387 19.2243 8.77288 18.849 8.52149 18.0842L8.23608 17.2306C8.14971 16.9791 8.16198 16.7195 8.20997 16.5129C8.25824 16.3049 8.36222 16.0662 8.55008 15.8789L8.5544 15.8746L10.0297 14.4302C10.0313 14.4269 10.0331 14.4232 10.0347 14.4192C10.0367 14.4145 10.0384 14.41 10.0397 14.4061V13.1133L7.34475 14.2683C6.94249 14.4402 6.46653 14.4604 6.06786 14.1991C5.66928 13.9378 5.5 13.4953 5.5 13.0616V12.2297C5.5 11.8534 5.64043 11.4944 5.82641 11.2131C6.01241 10.9318 6.2876 10.6622 6.63283 10.5136L10.0307 9.05189V7.3458C10.0307 6.89138 10.1904 6.43838 10.4178 6.06776C10.6445 5.69816 10.9772 5.34734 11.3917 5.14357ZM11.9984 6.34198C11.9974 6.34222 11.995 6.34289 11.9914 6.34471L11.9874 6.34668C11.8554 6.4114 11.6954 6.55651 11.5658 6.76777C11.4366 6.97857 11.3765 7.19197 11.3765 7.3458V9.19739C11.3765 9.44058 11.2869 9.65401 11.1853 9.80828C11.084 9.962 10.9244 10.1274 10.7041 10.2235L10.701 10.2248L7.16634 11.7454C7.11679 11.7668 7.02856 11.8327 6.94999 11.9516C6.8713 12.0706 6.84576 12.1767 6.84576 12.2297V13.0217L9.81507 11.7492C10.1431 11.6046 10.549 11.5839 10.8958 11.811C11.243 12.0383 11.3854 12.4187 11.3854 12.7754V14.4302C11.3854 14.6225 11.3328 14.8024 11.276 14.9376C11.2195 15.0719 11.13 15.2311 11 15.3607L10.9956 15.365L9.52352 16.8063C9.5227 16.809 9.52185 16.812 9.52105 16.8154C9.52018 16.8192 9.51958 16.8225 9.51916 16.8254L9.78421 17.6181L11.1395 16.476L11.1411 16.4747C11.6204 16.0733 12.3561 16.084 12.831 16.4665L12.8441 16.4773L14.1914 17.6195L14.4539 16.8343C14.4535 16.8315 14.4529 16.8281 14.452 16.8244C14.4511 16.8206 14.4502 16.8173 14.4493 16.8145L13 15.3607C12.9997 15.3604 12.9993 15.36 12.999 15.3597C12.8633 15.224 12.7734 15.0606 12.7177 14.9237C12.6619 14.7865 12.6146 14.612 12.6146 14.4302V12.7754C12.6146 12.4245 12.7509 12.0423 13.1022 11.8135C13.4497 11.587 13.8517 11.6127 14.1709 11.7432L14.1812 11.7475L17.1542 13.0217V12.2297C17.1542 12.1726 17.1282 12.0657 17.0519 11.9494C16.9757 11.8332 16.8898 11.769 16.8387 11.7475L16.8338 11.7455L13.3028 10.2265C13.0736 10.1305 12.9103 9.96201 12.8075 9.80238C12.7035 9.64086 12.6235 9.42974 12.6235 9.19739V7.3458C12.6235 7.19555 12.5636 6.98543 12.4324 6.7737C12.3032 6.56515 12.1422 6.41543 12.0064 6.34365C12.004 6.34261 12.0024 6.34217 12.0016 6.34198L12 6.34174L11.9984 6.34198ZM14.1743 17.6707C14.1743 17.6708 14.1743 17.6707 14.1743 17.6707Z" fill="#553716"/>
</svg>
