<svg width="32" height="32" viewBox="0 0 32 32" fill="none" xmlns="http://www.w3.org/2000/svg">
<path d="M25.3333 17.8132H2.66666C2.12 17.8132 1.66666 17.3599 1.66666 16.8132C1.66666 16.2666 2.12 15.8132 2.66666 15.8132H25.3333C25.88 15.8132 26.3333 16.2666 26.3333 16.8132C26.3333 17.3599 25.88 17.8132 25.3333 17.8132Z" fill="#A1C038"/>
<path d="M20.2933 29.0001H7.7067C3.13337 29.0001 1.66666 27.5467 1.66666 23.0267V13.7067C1.66666 10.1201 2.48003 8.00007 6.61336 7.76007C6.96003 7.74673 7.32004 7.7334 7.7067 7.7334H20.2933C24.8666 7.7334 26.3333 9.18673 26.3333 13.7067V23.2401C26.28 27.6001 24.8133 29.0001 20.2933 29.0001ZM7.7067 9.7334C7.3467 9.7334 7.01337 9.74673 6.7067 9.76007C4.32004 9.90673 3.66666 10.4134 3.66666 13.7067V23.0267C3.66666 26.4401 4.2267 27.0001 7.7067 27.0001H20.2933C23.7333 27.0001 24.2933 26.4667 24.3333 23.2267V13.7067C24.3333 10.2934 23.7733 9.7334 20.2933 9.7334H7.7067Z" fill="#074C31"/>
<path d="M25.3333 24.24C25.08 24.24 24.8267 24.1467 24.6533 23.9733C24.4533 23.7867 24.3333 23.52 24.3333 23.24V13.7067C24.3333 10.2933 23.7733 9.73333 20.2933 9.73333H7.7067C7.3467 9.73333 7.01337 9.74667 6.7067 9.76C6.44004 9.77333 6.1733 9.66667 5.9733 9.48C5.7733 9.29333 5.66666 9.02667 5.66666 8.74667C5.72 4.4 7.1867 3 11.7067 3H24.2933C28.8666 3 30.3333 4.45333 30.3333 8.97333V18.2933C30.3333 21.88 29.52 24 25.3866 24.24C25.3733 24.24 25.3467 24.24 25.3333 24.24ZM7.7067 7.73333H20.2933C24.8666 7.73333 26.3333 9.18666 26.3333 13.7067V22.1333C27.88 21.8533 28.3333 21.0533 28.3333 18.2933V8.97333C28.3333 5.56 27.7733 5 24.2933 5H11.7067C8.6667 5 7.88004 5.41333 7.7067 7.73333Z" fill="#074C31"/>
<path d="M9.28035 24.7466H6.98698C6.44031 24.7466 5.98698 24.2932 5.98698 23.7466C5.98698 23.1999 6.44031 22.7466 6.98698 22.7466H9.28035C9.82702 22.7466 10.2804 23.1999 10.2804 23.7466C10.2804 24.2932 9.84035 24.7466 9.28035 24.7466Z" fill="#A1C038"/>
<path d="M16.7325 24.7466H12.1458C11.5992 24.7466 11.1458 24.2932 11.1458 23.7466C11.1458 23.1999 11.5992 22.7466 12.1458 22.7466H16.7325C17.2792 22.7466 17.7325 23.1999 17.7325 23.7466C17.7325 24.2932 17.2925 24.7466 16.7325 24.7466Z" fill="#A1C038"/>
</svg>
