<svg width="32" height="32" viewBox="0 0 32 32" fill="none" xmlns="http://www.w3.org/2000/svg">
<path fill-rule="evenodd" clip-rule="evenodd" d="M24.4593 5.14685C24.6427 5.31271 24.7473 5.54835 24.7473 5.79552V9.29425C25.7473 9.78542 26.534 10.5863 27.1144 11.3699C27.6849 12.1403 28.0993 12.952 28.352 13.5847L29.4497 14.0235C29.7821 14.1563 30 14.478 30 14.8357V20.0849C30 20.4426 29.7821 20.7643 29.4497 20.8972L28.3705 21.3286C27.8297 22.8118 26.7741 24.0297 26.1195 24.6381L25.0159 29.3255C24.9228 29.7207 24.5699 30 24.1637 30H20.6619C20.2602 30 19.91 29.7268 19.8126 29.3373L19.476 27.9918C17.8999 28.5388 16.1932 28.6351 14.6719 28.5326C13.2615 28.4376 11.9571 28.1681 10.974 27.883L10.3927 29.4323C10.2645 29.7738 9.93787 30 9.57295 30H6.36298C5.9682 30 5.62227 29.736 5.51839 29.3553L3.7983 23.0529C2.49175 20.8226 1.95217 18.7722 2.00331 16.9114C2.0553 15.0191 2.71636 13.3913 3.68913 12.0365C5.61178 9.35871 8.76932 7.71481 11.0637 7.00149C11.5253 6.85796 12.016 7.11561 12.1597 7.57697C12.3033 8.03833 12.0455 8.52869 11.5838 8.67223C9.50091 9.3198 6.73461 10.7962 5.11171 13.0565C4.3117 14.1708 3.79456 15.4664 3.75354 16.9594C3.71244 18.455 4.1474 20.2169 5.36446 22.2624C5.40481 22.3302 5.4358 22.4032 5.45658 22.4793L7.03163 28.2503H8.96626L9.62869 26.485C9.79776 26.0344 10.2992 25.8049 10.751 25.9713C11.6011 26.2842 13.1096 26.6737 14.7896 26.7869C16.4777 26.9006 18.247 26.7291 19.6868 26.0097C19.9243 25.891 20.2029 25.8865 20.4441 25.9974C20.6853 26.1082 20.8632 26.3225 20.9276 26.58L21.3454 28.2503H23.4703L24.4788 23.9672C24.5223 23.7825 24.6247 23.617 24.7705 23.4955C25.2815 23.07 26.4234 21.828 26.8237 20.4278C26.8981 20.1676 27.0889 19.9564 27.3403 19.8559L28.2491 19.4926V15.4281L27.3403 15.0648C27.1013 14.9692 26.9164 14.7733 26.835 14.5292C26.6669 14.0254 26.2845 13.1906 25.707 12.4108C25.1243 11.6241 24.4067 10.9786 23.595 10.7082C23.2376 10.5891 22.9964 10.2548 22.9964 9.8782V6.82013C22.7302 6.87653 22.4481 6.9475 22.1719 7.03416C21.4663 7.25555 20.9861 7.5231 20.7931 7.76007C20.4879 8.13478 19.9364 8.19126 19.5615 7.88622C19.1865 7.58119 19.13 7.03014 19.4352 6.65543C19.9765 5.99104 20.8969 5.60027 21.6474 5.36479C22.4417 5.11555 23.2575 4.97769 23.7848 4.925C24.0309 4.90041 24.2759 4.981 24.4593 5.14685Z" fill="#074C31" stroke="#074C31" stroke-width="0.2" stroke-linecap="round" stroke-linejoin="round"/>
<ellipse cx="23.288" cy="15.1273" rx="0.875445" ry="0.874861" fill="#A1C038" stroke="#A1C038" stroke-width="1.2"/>
<path d="M18.4549 11.6066C19.3719 11.0147 20.08 10.1379 20.4758 9.10431C20.8716 8.07073 20.9343 6.93457 20.6548 5.86187C20.3753 4.78917 19.7682 3.83616 18.9223 3.14212C18.0763 2.44807 17.0359 2.04938 15.953 2.00429C14.87 1.95921 13.8014 2.2701 12.9033 2.89154C12.0051 3.51298 11.3246 4.41238 10.961 5.45831C10.5974 6.50424 10.57 7.64187 10.8826 8.70493C11.1952 9.768 11.8315 10.7008 12.6986 11.367L13.7146 9.97924C13.1366 9.53513 12.7124 8.91328 12.504 8.20458C12.2956 7.49587 12.3139 6.73747 12.5563 6.04019C12.7986 5.34291 13.2523 4.74331 13.8511 4.32902C14.4498 3.91474 15.1622 3.70747 15.8842 3.73753C16.6061 3.76759 17.2998 4.03338 17.8637 4.49607C18.4277 4.95877 18.8324 5.5941 19.0188 6.30923C19.2051 7.02435 19.1633 7.78178 18.8994 8.47083C18.6355 9.15987 18.1635 9.7444 17.5522 10.139L18.4549 11.6066Z" fill="#A1C038" stroke="#A1C038" stroke-width="0.2"/>
<path fill-rule="evenodd" clip-rule="evenodd" d="M14.8789 11.4654C13.4894 11.5611 12.2947 11.8905 11.6493 12.1485C11.2004 12.3279 10.6909 12.1097 10.5113 11.6611C10.3318 11.2125 10.5501 10.7034 10.999 10.5239C11.8127 10.1987 13.186 9.82816 14.7584 9.71979C16.3306 9.61144 18.1682 9.7607 19.8618 10.5419C20.3008 10.7444 20.4925 11.2641 20.2899 11.7028C20.0872 12.1415 19.5671 12.333 19.1281 12.1305C17.7869 11.5119 16.2686 11.3696 14.8789 11.4654Z" fill="#074C31" stroke="#074C31" stroke-width="0.2" stroke-linecap="round" stroke-linejoin="round"/>
</svg>
