<svg width="32" height="32" viewBox="0 0 32 32" fill="none" xmlns="http://www.w3.org/2000/svg">
<path d="M28 1H12C11.2044 1 10.4413 1.31607 9.87868 1.87868C9.31607 2.44129 9 3.20435 9 4V14C9 14.7956 9.31607 15.5587 9.87868 16.1213C10.4413 16.6839 11.2044 17 12 17H28C28.7956 17 29.5587 16.6839 30.1213 16.1213C30.6839 15.5587 31 14.7956 31 14V4C31 3.20435 30.6839 2.44129 30.1213 1.87868C29.5587 1.31607 28.7956 1 28 1ZM11 4C11 3.73478 11.1054 3.48043 11.2929 3.29289C11.4804 3.10536 11.7348 3 12 3H12.87C12.7155 3.42461 12.4671 3.80882 12.1432 4.12397C11.8194 4.43911 11.4286 4.67705 11 4.82V4ZM12 15C11.7348 15 11.4804 14.8946 11.2929 14.7071C11.1054 14.5196 11 14.2652 11 14V13.2C11.4303 13.3383 11.8237 13.572 12.151 13.8837C12.4783 14.1954 12.7309 14.577 12.89 15H12ZM29 14C29 14.2652 28.8946 14.5196 28.7071 14.7071C28.5196 14.8946 28.2652 15 28 15H27.13C27.2845 14.5754 27.5329 14.1912 27.8568 13.876C28.1806 13.5609 28.5714 13.323 29 13.18V14ZM29 11.12C28.0261 11.303 27.1276 11.7684 26.4164 12.4583C25.7051 13.1482 25.2125 14.0322 25 15H15C14.791 14.0285 14.2999 13.1402 13.5884 12.4465C12.8769 11.7528 11.9765 11.2844 11 11.1V6.9C11.9765 6.71562 12.8769 6.24723 13.5884 5.55349C14.2999 4.85975 14.791 3.97151 15 3H25C25.209 3.97151 25.7001 4.85975 26.4116 5.55349C27.1231 6.24723 28.0235 6.71562 29 6.9V11.12ZM29 4.84C28.5656 4.69758 28.1695 4.45776 27.8419 4.13886C27.5144 3.81997 27.264 3.43043 27.11 3H28C28.2652 3 28.5196 3.10536 28.7071 3.29289C28.8946 3.48043 29 3.73478 29 4V4.84Z" fill="#A1C038"/>
<path d="M22 6.80008C22.2652 6.80008 22.5196 6.69472 22.7071 6.50718C22.8946 6.31965 23 6.06529 23 5.80008C23 5.53486 22.8946 5.28051 22.7071 5.09297C22.5196 4.90543 22.2652 4.80008 22 4.80008H21.09C21.0294 4.59236 20.9031 4.4099 20.73 4.28008C20.5569 4.15026 20.3464 4.08008 20.13 4.08008C19.9136 4.08008 19.7031 4.15026 19.53 4.28008C19.3569 4.4099 19.2306 4.59236 19.17 4.80008H18C17.7348 4.80008 17.4804 4.90543 17.2929 5.09297C17.1054 5.28051 17 5.53486 17 5.80008V9.00008C17 9.26529 17.1054 9.51965 17.2929 9.70718C17.4804 9.89472 17.7348 10.0001 18 10.0001H21V11.2001H18C17.7348 11.2001 17.4804 11.3054 17.2929 11.493C17.1054 11.6805 17 11.9349 17 12.2001C17 12.4653 17.1054 12.7196 17.2929 12.9072C17.4804 13.0947 17.7348 13.2001 18 13.2001H19.17C19.2306 13.4078 19.3569 13.5903 19.53 13.7201C19.7031 13.8499 19.9136 13.9201 20.13 13.9201C20.3464 13.9201 20.5569 13.8499 20.73 13.7201C20.9031 13.5903 21.0294 13.4078 21.09 13.2001H22C22.2652 13.2001 22.5196 13.0947 22.7071 12.9072C22.8946 12.7196 23 12.4653 23 12.2001V9.00008C23 8.73486 22.8946 8.48051 22.7071 8.29297C22.5196 8.10544 22.2652 8.00008 22 8.00008H19V6.80008H22Z" fill="#A1C038"/>
<path d="M28 22.4499L24 23.2699C24.0098 23.0767 24.0098 22.8831 24 22.6899C23.9897 22.2941 23.9011 21.9044 23.7395 21.543C23.5778 21.1816 23.3462 20.8559 23.058 20.5844C22.7698 20.313 22.4308 20.1013 22.0604 19.9615C21.6901 19.8217 21.2957 19.7566 20.9 19.7699C19.6006 19.8096 18.3107 19.5352 17.14 18.9699L15.25 18.1399C14.7425 17.9206 14.1777 17.8715 13.64 17.9999C13.5706 18.0092 13.5031 18.0294 13.44 18.0599L10.36 19.4499C10.2495 19.1205 10.0947 18.8077 9.90002 18.5199C9.45343 17.8738 8.77126 17.4286 8.00002 17.2799L2.18002 16.4099C2.03532 16.3834 1.88656 16.3892 1.74434 16.4268C1.60213 16.4644 1.46996 16.5329 1.35726 16.6275C1.24457 16.722 1.15412 16.8403 1.09237 16.9738C1.03062 17.1073 0.999088 17.2528 1.00002 17.3999V29.3999C1.00002 29.6651 1.10538 29.9195 1.29291 30.107C1.48045 30.2945 1.7348 30.3999 2.00002 30.3999H6.40002C7.11217 30.3688 7.79148 30.0916 8.32213 29.6157C8.85278 29.1397 9.20192 28.4945 9.31002 27.7899L16.53 30.5699C17.2454 30.8564 18.0094 31.0024 18.78 30.9999C19.575 30.9995 20.3626 30.8468 21.1 30.5499L29.38 27.1899C29.9872 26.9479 30.4783 26.482 30.7518 25.8883C31.0254 25.2947 31.0605 24.6187 30.85 23.9999C30.6439 23.4398 30.2411 22.9737 29.7167 22.6885C29.1924 22.4033 28.5823 22.3185 28 22.4499ZM6.40002 28.3999H3.00002V18.5599L7.67002 19.2599C7.91803 19.3142 8.1361 19.4607 8.28002 19.6699C8.40859 19.8636 8.49774 20.0808 8.54235 20.309C8.58696 20.5372 8.58617 20.772 8.54002 20.9999L7.36002 27.3399C7.25002 27.9999 6.84002 28.3999 6.40002 28.3999ZM28.63 25.3299L20.35 28.6899C19.3545 29.0852 18.2455 29.0852 17.25 28.6899L9.68002 25.7999L10.46 21.5899L14.14 19.9299C14.2361 19.9212 14.3328 19.9385 14.42 19.9799L16.32 20.8099C17.7519 21.5045 19.329 21.8474 20.92 21.8099C21.0563 21.8017 21.1928 21.8215 21.3212 21.8681C21.4495 21.9146 21.5669 21.987 21.6662 22.0807C21.7656 22.1744 21.8446 22.2874 21.8986 22.4128C21.9526 22.5382 21.9803 22.6734 21.98 22.8099C21.9878 23.0459 21.9608 23.2817 21.9 23.5099L16.27 21.9299C16.1407 21.8829 16.0031 21.8631 15.8658 21.8718C15.7285 21.8804 15.5945 21.9173 15.4721 21.9801C15.3497 22.0429 15.2416 22.1303 15.1545 22.2368C15.0674 22.3433 15.0032 22.4666 14.966 22.5991C14.9287 22.7315 14.9192 22.8702 14.938 23.0065C14.9568 23.1428 15.0035 23.2737 15.0752 23.3911C15.147 23.5085 15.2421 23.6098 15.3548 23.6888C15.4674 23.7677 15.5952 23.8226 15.73 23.8499L22.08 25.6299H22.15H22.26H22.35H22.45H22.55L28.41 24.4299C28.5279 24.4014 28.6522 24.4185 28.7579 24.4779C28.8636 24.5372 28.943 24.6344 28.98 24.7499C28.993 24.8715 28.9659 24.9941 28.9027 25.0988C28.8395 25.2036 28.7437 25.2847 28.63 25.3299Z" fill="#074C31"/>
</svg>
